<svg xmlns="http://www.w3.org/2000/svg" viewBox="0 0 64 64"><path d="M14,58h3.05v2H14a5,5,0,0,1-5-5V13a5,5,0,0,1,5-5h5v2H14a3,3,0,0,0-3,3V55A3,3,0,0,0,14,58ZM49,13V36h2V13a5,5,0,0,0-5-5H41v2h5A3,3,0,0,1,49,13ZM19,14V12H14a1,1,0,0,0-1,1V55a1,1,0,0,0,1,1h2.94V54H15V14ZM45,36h2V13a1,1,0,0,0-1-1H41v2h4ZM21,17V9a1,1,0,0,1,1-1h4a4,4,0,0,1,8,0h4a1,1,0,0,1,1,1v8a1,1,0,0,1-1,1H22A1,1,0,0,1,21,17Zm2-1H37V10H33a1,1,0,0,1-1-1V8a2,2,0,0,0-4,0V9a1,1,0,0,1-1,1H23Zm4-2h6V12H27Zm14,8H31v2H41Zm0,6H31v2H41ZM31,36H41V34H31Zm-9.55-8.17A.92.92,0,0,0,22,28a1,1,0,0,0,.71-.29l4-4-1.42-1.42-3.42,3.42-2.32-1.54-1.1,1.66ZM22,36a1,1,0,0,0,.71-.29l4-4-1.42-1.42-3.42,3.42-2.32-1.54-1.1,1.66,3,2A.92.92,0,0,0,22,36ZM55,58v2H19V58h3V49a1,1,0,0,1,1-1h6a1,1,0,0,1,1,1v9h3V45a1,1,0,0,1,1-1h6a1,1,0,0,1,1,1V58h3V39a1,1,0,0,1,1-1h6a1,1,0,0,1,1,1V58ZM28,58V50H24v8Zm11,0V46H35V58Zm11,0V40H46V58Z" data-name="35 Survey Analytics, Clipboard, Data Assessment, Data Evaluation"/></svg>