<svg xmlns="http://www.w3.org/2000/svg" width="32" height="32" viewBox="0 0 32 32"><path style="text-indent:0;text-align:start;line-height:normal;text-transform:none;block-progression:tb;marker:none;-inkscape-font-specification:Sans" d="M 6 0 C 4.3466487 0 3 1.3466001 3 3 C 3 4.6533999 4.3466487 6 6 6 L 15.5 6 L 15.5 8 L 6 8 C 4.3466487 8 3 9.3466001 3 11 C 3 12.6534 4.3466487 14 6 14 L 15.5 14 L 15.5 16 L 6 16 C 4.3466487 16 3 17.3466 3 19 C 3 20.6534 4.3466487 22 6 22 L 15.5 22 L 15.5 25.0625 C 14.833211 25.178013 14.220979 25.520198 13.78125 26 L 1.5 26 L 1 26 L 1 26.5 L 1 29.5 L 1 30 L 1.5 30 L 13.78125 30 C 14.331211 30.609582 15.118695 31 16 31 C 16.881305 31 17.668789 30.609582 18.21875 30 L 30.5 30 L 31 30 L 31 29.5 L 31 26.5 L 31 26 L 30.5 26 L 18.21875 26 C 17.779021 25.520198 17.166789 25.178013 16.5 25.0625 L 16.5 22 L 26 22 C 27.653351 22 29 20.6534 29 19 C 29 17.3466 27.653351 16 26 16 L 16.5 16 L 16.5 14 L 26 14 C 27.653351 14 29 12.6534 29 11 C 29 9.3466001 27.653351 8 26 8 L 16.5 8 L 16.5 6 L 26 6 C 27.653351 6 29 4.6533999 29 3 C 29 1.3466001 27.653351 0 26 0 L 6 0 z M 6 1 L 26 1 C 27.116649 1 28 1.8834 28 3 C 28 4.1166 27.116649 5 26 5 L 16.5 5 L 15.5 5 L 6 5 C 4.8833514 5 4 4.1166 4 3 C 4 1.8834 4.8833514 1 6 1 z M 6 9 L 15.5 9 L 16.5 9 L 26 9 C 27.116649 9 28 9.8834 28 11 C 28 12.1166 27.116649 13 26 13 L 6 13 C 4.8833514 13 4 12.1166 4 11 C 4 9.8834 4.8833514 9 6 9 z M 6 17 L 26 17 C 27.116649 17 28 17.8834 28 19 C 28 20.1166 27.116649 21 26 21 L 6 21 C 4.8833514 21 4 20.1166 4 19 C 4 17.8834 4.8833514 17 6 17 z M 16 26 C 17.11049 26 18 26.8895 18 28 C 18 29.1105 17.11049 30 16 30 C 14.88951 30 14 29.1105 14 28 C 14 26.8895 14.88951 26 16 26 z M 16 26.5 C 15.17751 26.5 14.5 27.1775 14.5 28 C 14.5 28.8225 15.17751 29.5 16 29.5 C 16.82249 29.5 17.5 28.8225 17.5 28 C 17.5 27.1775 16.82249 26.5 16 26.5 z M 2 27 L 13.1875 27 C 13.073609 27.316114 13 27.645744 13 28 C 13 28.343937 13.079862 28.69173 13.1875 29 L 2 29 L 2 27 z M 18.8125 27 L 30 27 L 30 29 L 18.8125 29 C 18.920138 28.69173 19 28.343937 19 28 C 19 27.645744 18.926391 27.316114 18.8125 27 z M 16 27.5 C 16.28207 27.5 16.5 27.7179 16.5 28 C 16.5 28.2821 16.28207 28.5 16 28.5 C 15.71793 28.5 15.5 28.2821 15.5 28 C 15.5 27.7179 15.71793 27.5 16 27.5 z " color="#000" enable-background="accumulate" font-family="Sans" font-weight="400" overflow="visible"/></svg>